<?xml version="1.0" encoding="UTF-8" standalone="no"?>
<!-- Created with Inkscape (http://www.inkscape.org/) -->

<svg
   width="200"
   height="110"
   viewBox="0 0 52.916672 29.104166"
   version="1.1"
   id="svg5"
   inkscape:version="1.3.2 (091e20e, 2023-11-25, custom)"
   sodipodi:docname="d-latch.svg"
   xmlns:inkscape="http://www.inkscape.org/namespaces/inkscape"
   xmlns:sodipodi="http://sodipodi.sourceforge.net/DTD/sodipodi-0.dtd"
   xmlns="http://www.w3.org/2000/svg"
   xmlns:svg="http://www.w3.org/2000/svg">
  <sodipodi:namedview
     id="namedview7"
     pagecolor="#ffffff"
     bordercolor="#666666"
     borderopacity="1.0"
     inkscape:pageshadow="2"
     inkscape:pageopacity="0.0"
     inkscape:pagecheckerboard="0"
     inkscape:document-units="mm"
     showgrid="true"
     inkscape:zoom="4"
     inkscape:cx="92.125001"
     inkscape:cy="107.375"
     inkscape:window-width="1920"
     inkscape:window-height="1001"
     inkscape:window-x="-9"
     inkscape:window-y="-9"
     inkscape:window-maximized="1"
     inkscape:current-layer="layer1"
     width="100mm"
     inkscape:showpageshadow="2"
     inkscape:deskcolor="#d1d1d1">
    <inkscape:grid
       id="grid1"
       units="px"
       originx="0"
       originy="0"
       spacingx="1.0583333"
       spacingy="1.0583333"
       empcolor="#0099e5"
       empopacity="0.30196078"
       color="#0099e5"
       opacity="0.14901961"
       empspacing="4"
       dotted="false"
       gridanglex="30"
       gridanglez="30"
       visible="true" />
  </sodipodi:namedview>
  <defs
     id="defs2">
    <rect
       x="187.99998"
       y="108"
       width="51.999996"
       height="31.999998"
       id="rect2" />
    <symbol
       id="And_Gate">
      <title
         id="title890">And Gate</title>
      <path
         d="M 6.6145833,18.520833 V 15.875 13.229167 10.583333 7.9375 h 7.9374997 c 2.922507,0 5.291667,2.36916 5.291667,5.291667 0,2.922506 -2.36916,5.291666 -5.291667,5.291666 z"
         id="path892"
         style="stroke-width:0.264583" />
    </symbol>
    <symbol
       id="Not_Gate_Small">
      <title
         id="title912">Not Gate Small</title>
      <path
         d="m 17.859375,13.229167 c 0,0.365313 -0.296145,0.661458 -0.661458,0.661458 -0.365314,0 -0.661459,-0.296145 -0.661459,-0.661458 0,-0.365314 0.296145,-0.661459 0.661459,-0.661459 0.365313,0 0.661458,0.296145 0.661458,0.661459 z"
         id="path914"
         style="stroke-width:0.264583" />
      <path
         d="M 9.9778537,10.583333 16.592437,13.229167 9.9778537,15.875 Z"
         style="stroke-width:0.264583;stroke-miterlimit:2"
         id="path916" />
    </symbol>
    <symbol
       id="Nand_Gate">
      <title
         id="title883">Nand Gate</title>
      <path
         d="M 6.6145833,18.520833 V 15.875 13.229167 10.583333 7.9375 h 7.9374997 c 2.922507,0 5.291667,2.36916 5.291667,5.291667 0,2.922506 -2.36916,5.291666 -5.291667,5.291666 z"
         id="path885"
         style="stroke-width:0.264583" />
      <path
         d="m 21.166667,13.229167 c 0,0.365313 -0.296145,0.661458 -0.661459,0.661458 -0.365313,0 -0.661458,-0.296145 -0.661458,-0.661458 0,-0.365314 0.296145,-0.661459 0.661458,-0.661459 0.365314,0 0.661459,0.296145 0.661459,0.661459 z"
         id="path887"
         style="stroke-width:0.264583" />
    </symbol>
    <symbol
       id="Or_Gate">
      <title
         id="title8">Or Gate</title>
      <path
         d="M 24.65625,70 H 45 C 65,70 75,50 75,50 75,50 70,30 45,30 H 24.65625 c 1.789926,3.094188 3.151364,6.453471 4.0625,10 C 29.54012,43.197121 30,46.545819 30,50 c 0,3.454181 -0.45988,6.802879 -1.28125,10 -0.911136,3.546529 -2.272574,6.905812 -4.0625,10 z"
         id="path9" />
    </symbol>
    <symbol
       id="Nor_Gate">
      <title
         id="title6">Nor Gate</title>
      <path
         d="M 24.65625,70 H 45 C 65,70 75,50 75,50 75,50 70,30 45,30 H 24.65625 c 1.789926,3.094188 3.151364,6.453471 4.0625,10 C 29.54012,43.197121 30,46.545819 30,50 c 0,3.454181 -0.45988,6.802879 -1.28125,10 -0.911136,3.546529 -2.272574,6.905812 -4.0625,10 z"
         id="path7" />
      <path
         d="m 80,50 c 0,1.380712 -1.119288,2.5 -2.5,2.5 -1.380712,0 -2.5,-1.119288 -2.5,-2.5 0,-1.380712 1.119288,-2.5 2.5,-2.5 1.380712,0 2.5,1.119288 2.5,2.5 z"
         id="path8-7" />
    </symbol>
  </defs>
  <g
     inkscape:label="Layer 1"
     inkscape:groupmode="layer"
     id="layer1">
    <path
       style="fill:#ffffff;fill-opacity:1;stroke:#000000;stroke-width:0.264583;stroke-linecap:square;stroke-dasharray:none;stroke-opacity:1"
       d="m 26.458329,21.166666 h 7.408333"
       id="path16" />
    <path
       style="fill:#ffffff;fill-opacity:1;stroke:#000000;stroke-width:0.264583;stroke-linecap:square;stroke-dasharray:none;stroke-opacity:1"
       d="m 27.516663,8.4666664 h 6.349999"
       id="path15" />
    <path
       style="fill:#ffffff;fill-opacity:1;stroke:#000000;stroke-width:0.264583;stroke-linecap:square;stroke-dasharray:none;stroke-opacity:1"
       d="m 42.333327,8.4666664 h 6.349999"
       id="path15-0" />
    <path
       style="fill:#ffffff;fill-opacity:1;stroke:#000000;stroke-width:0.264583;stroke-linecap:square;stroke-dasharray:none;stroke-opacity:1"
       d="m 42.333327,21.166666 h 6.349999"
       id="path15-8" />
    <path
       style="fill:#ffffff;stroke:#000000;stroke-width:0.264583"
       d="M 31.749996,4.2333335 V 25.399999 H 44.449994 V 4.2333335 Z"
       id="path1" />
    <text
       xml:space="preserve"
       style="font-size:2.82222px;fill:#000000;fill-opacity:1;stroke:#000000;stroke-width:0.132291;stroke-dasharray:none;stroke-opacity:0.993528"
       x="32.594734"
       y="22.280119"
       id="text19-4-8-3"><tspan
         sodipodi:role="line"
         id="tspan19-4-9-8"
         style="font-size:2.82222px;fill:#000000;fill-opacity:1;stroke:none;stroke-width:0.132291;stroke-dasharray:none"
         x="32.594734"
         y="22.280119">$R$</tspan></text>
    <text
       xml:space="preserve"
       style="font-size:2.82222px;fill:#000000;fill-opacity:1;stroke:#000000;stroke-width:0.132291;stroke-dasharray:none;stroke-opacity:0.993528"
       x="32.594734"
       y="9.5801201"
       id="text19-4-8-3-65"><tspan
         sodipodi:role="line"
         id="tspan19-4-9-8-1"
         style="font-size:2.82222px;fill:#000000;fill-opacity:1;stroke:none;stroke-width:0.132291;stroke-dasharray:none"
         x="32.594734"
         y="9.5801201">$S$</tspan></text>
    <text
       xml:space="preserve"
       style="font-size:2.82222px;fill:#000000;fill-opacity:1;stroke:#000000;stroke-width:0.132291;stroke-dasharray:none;stroke-opacity:0.993528"
       x="1.9030706"
       y="7.4634533"
       id="text19-4-8-3-65-2"><tspan
         sodipodi:role="line"
         id="tspan19-4-9-8-1-8"
         style="font-size:2.82222px;fill:#000000;fill-opacity:1;stroke:none;stroke-width:0.132291;stroke-dasharray:none"
         x="1.9030706"
         y="7.4634533">$D$</tspan></text>
    <text
       xml:space="preserve"
       style="font-size:2.82222px;fill:#000000;fill-opacity:1;stroke:#000000;stroke-width:0.132291;stroke-dasharray:none;stroke-opacity:0.993528"
       x="1.9030706"
       y="15.93012"
       id="text19-4-8-3-65-2-3"><tspan
         sodipodi:role="line"
         id="tspan19-4-9-8-1-8-0"
         style="font-size:2.82222px;fill:#000000;fill-opacity:1;stroke:none;stroke-width:0.132291;stroke-dasharray:none"
         x="1.9030706"
         y="15.93012">$G$</tspan></text>
    <text
       xml:space="preserve"
       style="font-size:2.82222px;fill:#000000;fill-opacity:1;stroke:#000000;stroke-width:0.132291;stroke-dasharray:none;stroke-opacity:0.993528"
       x="40.003063"
       y="9.5801201"
       id="text19-4-8-3-4"><tspan
         sodipodi:role="line"
         id="tspan19-4-9-8-5"
         style="font-size:2.82222px;fill:#000000;fill-opacity:1;stroke:none;stroke-width:0.132291;stroke-dasharray:none"
         x="40.003063"
         y="9.5801201">$Q$</tspan></text>
    <text
       xml:space="preserve"
       style="font-size:2.82222px;fill:#000000;fill-opacity:1;stroke:#000000;stroke-width:0.132291;stroke-dasharray:none;stroke-opacity:0.993528"
       x="40.003063"
       y="22.280119"
       id="text19-4-8-3-4-6"><tspan
         sodipodi:role="line"
         id="tspan19-4-9-8-5-7"
         style="font-size:2.82222px;fill:#000000;fill-opacity:1;stroke:none;stroke-width:0.132291;stroke-dasharray:none"
         x="40.003063"
         y="22.280119">$Q'$</tspan></text>
    <text
       xml:space="preserve"
       transform="scale(0.26458333)"
       id="text2"
       style="white-space:pre;shape-inside:url(#rect2);display:inline;fill:#000000;stroke-width:1.00157;stroke-linecap:round;stroke-opacity:0.993528" />
    <path
       style="fill:#000000;fill-opacity:1;stroke:#000000;stroke-width:0.264583;stroke-dasharray:none;stroke-opacity:1"
       d="M 8.4666654,6.3499999 22.291025,6.3248086"
       id="path8"
       sodipodi:nodetypes="cc" />
    <path
       style="fill:none;stroke:#000000;stroke-width:0.264583"
       d="m 20.10833,10.583333 h -5.291666 v 4.233333 H 4.2333327"
       id="path2"
       sodipodi:nodetypes="cccc" />
    <path
       style="fill:none;stroke:#000000;stroke-width:0.264583"
       d="M 20.10833,19.049999 H 14.816664 V 14.816666"
       id="path4"
       sodipodi:nodetypes="ccc" />
    <path
       style="fill:none;stroke:#000000;stroke-width:0.264583;stroke-linecap:square;stroke-dasharray:none"
       d="m 20.10833,23.283332 -11.6416646,10e-7 V 6.3499999"
       id="path10"
       sodipodi:nodetypes="ccc" />
    <g
       id="use1-3"
       style="fill:#ffffff;fill-opacity:1;stroke:#000000;stroke-width:2"
       transform="matrix(0.79240696,0,0,0.79240696,1.6184777,12.798118)">
      <title
         id="title12">Not Gate Small</title>
      <g
         id="g13"
         style="fill:#ffffff;fill-opacity:1;stroke-width:0.333898;stroke-dasharray:none">
        <path
           d="m 17.859375,13.229167 c 0,0.365313 -0.296145,0.661458 -0.661458,0.661458 -0.365314,0 -0.661459,-0.296145 -0.661459,-0.661458 0,-0.365314 0.296145,-0.661459 0.661459,-0.661459 0.365313,0 0.661458,0.296145 0.661458,0.661459 z"
           id="path12"
           style="fill:#ffffff;fill-opacity:1;stroke-width:0.333898;stroke-dasharray:none" />
        <path
           d="m 11.313447,10.560922 5.27899,2.668245 -5.27899,2.674127 z"
           style="fill:#ffffff;fill-opacity:1;stroke:#000000;stroke-width:0.333898;stroke-miterlimit:2;stroke-dasharray:none;stroke-opacity:1"
           id="path13"
           sodipodi:nodetypes="cccc" />
      </g>
    </g>
    <path
       style="fill:#ffffff;fill-opacity:1;stroke:#000000;stroke-width:0.264583;stroke-linecap:square;stroke-dasharray:none;stroke-opacity:1"
       d="M 4.2333327,6.3499998 H 8.4666655"
       id="path14" />
    <g
       id="use1"
       style="fill:#ffffff;fill-opacity:1;stroke:#000000;stroke-width:0.355729;stroke-dasharray:none"
       transform="matrix(0.74377751,0,0,0.74377751,13.815663,-1.6704007)">
      <title
         id="title3">And Gate</title>
      <path
         d="M 5.6145833,19.320833 V 16.475 13.629167 10.783333 7.9375 h 8.5374997 c 3.143421,0 5.691667,2.548246 5.691667,5.691667 0,3.14342 -2.548246,5.691666 -5.691667,5.691666 z"
         id="path3"
         style="fill:#ffffff;fill-opacity:1;stroke-width:0.355729;stroke-dasharray:none" />
    </g>
    <g
       id="use1-2"
       style="fill:#ffffff;fill-opacity:1;stroke:#000000;stroke-width:0.355729;stroke-dasharray:none"
       transform="matrix(0.74377751,0,0,0.74377751,13.815663,11.029599)">
      <title
         id="title3-7">And Gate</title>
      <path
         d="M 5.6145833,19.320833 V 16.475 13.629167 10.783333 7.9375 h 8.5374997 c 3.143421,0 5.691667,2.548246 5.691667,5.691667 0,3.14342 -2.548246,5.691666 -5.691667,5.691666 z"
         id="path3-2"
         style="fill:#ffffff;fill-opacity:1;stroke-width:0.355729;stroke-dasharray:none" />
    </g>
    <ellipse
       style="fill:#000000;fill-opacity:1;stroke:none;stroke-width:0.264583;stroke-linecap:square;stroke-dasharray:none;stroke-opacity:1"
       id="path17"
       cx="14.816665"
       cy="14.816667"
       rx="0.52916658"
       ry="0.52916664" />
  </g>
</svg>
