<?xml version="1.0" encoding="UTF-8" standalone="no"?>
<!-- Created with Inkscape (http://www.inkscape.org/) -->

<svg
   width="260"
   height="110"
   viewBox="0 0 68.791673 29.104166"
   version="1.1"
   id="svg5"
   inkscape:version="1.3.2 (091e20e, 2023-11-25, custom)"
   sodipodi:docname="sr-latch.svg"
   xmlns:inkscape="http://www.inkscape.org/namespaces/inkscape"
   xmlns:sodipodi="http://sodipodi.sourceforge.net/DTD/sodipodi-0.dtd"
   xmlns:xlink="http://www.w3.org/1999/xlink"
   xmlns="http://www.w3.org/2000/svg"
   xmlns:svg="http://www.w3.org/2000/svg">
  <sodipodi:namedview
     id="namedview7"
     pagecolor="#ffffff"
     bordercolor="#666666"
     borderopacity="1.0"
     inkscape:pageshadow="2"
     inkscape:pageopacity="0.0"
     inkscape:pagecheckerboard="0"
     inkscape:document-units="mm"
     showgrid="true"
     inkscape:zoom="11.313708"
     inkscape:cx="158.34773"
     inkscape:cy="73.671688"
     inkscape:window-width="1920"
     inkscape:window-height="1001"
     inkscape:window-x="-9"
     inkscape:window-y="-9"
     inkscape:window-maximized="1"
     inkscape:current-layer="layer1"
     width="100mm"
     inkscape:showpageshadow="2"
     inkscape:deskcolor="#d1d1d1">
    <inkscape:grid
       id="grid1"
       units="px"
       originx="0"
       originy="0"
       spacingx="1.0583333"
       spacingy="1.0583333"
       empcolor="#0099e5"
       empopacity="0.30196078"
       color="#0099e5"
       opacity="0.14901961"
       empspacing="4"
       dotted="false"
       gridanglex="30"
       gridanglez="30"
       visible="true" />
  </sodipodi:namedview>
  <defs
     id="defs2">
    <rect
       x="187.99998"
       y="108"
       width="51.999996"
       height="31.999998"
       id="rect2" />
    <symbol
       id="And_Gate">
      <title
         id="title890">And Gate</title>
      <path
         d="M 6.6145833,18.520833 V 15.875 13.229167 10.583333 7.9375 h 7.9374997 c 2.922507,0 5.291667,2.36916 5.291667,5.291667 0,2.922506 -2.36916,5.291666 -5.291667,5.291666 z"
         id="path892"
         style="stroke-width:0.264583" />
    </symbol>
    <symbol
       id="Not_Gate_Small">
      <title
         id="title912">Not Gate Small</title>
      <path
         d="m 17.859375,13.229167 c 0,0.365313 -0.296145,0.661458 -0.661458,0.661458 -0.365314,0 -0.661459,-0.296145 -0.661459,-0.661458 0,-0.365314 0.296145,-0.661459 0.661459,-0.661459 0.365313,0 0.661458,0.296145 0.661458,0.661459 z"
         id="path914"
         style="stroke-width:0.264583" />
      <path
         d="M 9.9778537,10.583333 16.592437,13.229167 9.9778537,15.875 Z"
         style="stroke-width:0.264583;stroke-miterlimit:2"
         id="path916" />
    </symbol>
    <symbol
       id="Nand_Gate">
      <title
         id="title883">Nand Gate</title>
      <path
         d="M 6.6145833,18.520833 V 15.875 13.229167 10.583333 7.9375 h 7.9374997 c 2.922507,0 5.291667,2.36916 5.291667,5.291667 0,2.922506 -2.36916,5.291666 -5.291667,5.291666 z"
         id="path885"
         style="stroke-width:0.264583" />
      <path
         d="m 21.166667,13.229167 c 0,0.365313 -0.296145,0.661458 -0.661459,0.661458 -0.365313,0 -0.661458,-0.296145 -0.661458,-0.661458 0,-0.365314 0.296145,-0.661459 0.661458,-0.661459 0.365314,0 0.661459,0.296145 0.661459,0.661459 z"
         id="path887"
         style="stroke-width:0.264583" />
    </symbol>
    <symbol
       id="Or_Gate">
      <title
         id="title8">Or Gate</title>
      <path
         d="M 24.65625,70 H 45 C 65,70 75,50 75,50 75,50 70,30 45,30 H 24.65625 c 1.789926,3.094188 3.151364,6.453471 4.0625,10 C 29.54012,43.197121 30,46.545819 30,50 c 0,3.454181 -0.45988,6.802879 -1.28125,10 -0.911136,3.546529 -2.272574,6.905812 -4.0625,10 z"
         id="path9" />
    </symbol>
    <symbol
       id="Nor_Gate">
      <title
         id="title6">Nor Gate</title>
      <path
         d="M 24.65625,70 H 45 C 65,70 75,50 75,50 75,50 70,30 45,30 H 24.65625 c 1.789926,3.094188 3.151364,6.453471 4.0625,10 C 29.54012,43.197121 30,46.545819 30,50 c 0,3.454181 -0.45988,6.802879 -1.28125,10 -0.911136,3.546529 -2.272574,6.905812 -4.0625,10 z"
         id="path7" />
      <path
         d="m 80,50 c 0,1.380712 -1.119288,2.5 -2.5,2.5 -1.380712,0 -2.5,-1.119288 -2.5,-2.5 0,-1.380712 1.119288,-2.5 2.5,-2.5 1.380712,0 2.5,1.119288 2.5,2.5 z"
         id="path8-7" />
    </symbol>
  </defs>
  <g
     inkscape:label="Layer 1"
     inkscape:groupmode="layer"
     id="layer1">
    <text
       xml:space="preserve"
       style="font-size:2.82222px;fill:#000000;fill-opacity:1;stroke:#000000;stroke-width:0.132291;stroke-dasharray:none;stroke-opacity:0.993528"
       x="1.9691002"
       y="7.4382615"
       id="text19-4-8-3"><tspan
         sodipodi:role="line"
         id="tspan19-4-9-8"
         style="font-size:2.82222px;fill:#000000;fill-opacity:1;stroke:none;stroke-width:0.132291;stroke-dasharray:none"
         x="1.9691002"
         y="7.4382615">$R$</tspan></text>
    <text
       xml:space="preserve"
       style="font-size:2.82222px;fill:#000000;fill-opacity:1;stroke:#000000;stroke-width:0.132291;stroke-dasharray:none;stroke-opacity:0.993528"
       x="1.9691002"
       y="24.371595"
       id="text19-4-8-3-65"><tspan
         sodipodi:role="line"
         id="tspan19-4-9-8-1"
         style="font-size:2.82222px;fill:#000000;fill-opacity:1;stroke:none;stroke-width:0.132291;stroke-dasharray:none"
         x="1.9691002"
         y="24.371595">$S$</tspan></text>
    <text
       xml:space="preserve"
       style="font-size:2.82222px;fill:#000000;fill-opacity:1;stroke:#000000;stroke-width:0.132291;stroke-dasharray:none;stroke-opacity:0.993528"
       x="27.369097"
       y="9.5549288"
       id="text19-4-8-3-4"><tspan
         sodipodi:role="line"
         id="tspan19-4-9-8-5"
         style="font-size:2.82222px;fill:#000000;fill-opacity:1;stroke:none;stroke-width:0.132291;stroke-dasharray:none"
         x="27.369097"
         y="9.5549288">$Q$</tspan></text>
    <text
       xml:space="preserve"
       transform="scale(0.26458333)"
       id="text2"
       style="white-space:pre;shape-inside:url(#rect2);display:inline;fill:#000000;stroke-width:1.00157;stroke-linecap:round;stroke-opacity:0.993528" />
    <path
       style="fill:#000000;fill-opacity:1;stroke:#000000;stroke-width:0.264583;stroke-dasharray:none;stroke-opacity:1"
       d="M 4.2993623,6.3248085 H 11.707693"
       id="path8" />
    <path
       style="fill:none;fill-opacity:1;stroke:#000000;stroke-width:0.264583;stroke-dasharray:none;stroke-opacity:1"
       d="M 10.64936,10.558142 H 6.4160283 v 2.116666 l 16.9333307,6.35 0.006,2.116667"
       id="path10"
       sodipodi:nodetypes="ccccc" />
    <path
       style="fill:none;fill-opacity:1;stroke:#000000;stroke-width:0.264583;stroke-dasharray:none;stroke-opacity:1"
       d="M 10.64936,19.024808 H 6.4160283 v -2.116666 l 16.9333307,-6.35 V 8.4414752"
       id="path11"
       sodipodi:nodetypes="ccccc" />
    <path
       style="fill:none;fill-opacity:1;stroke:#000000;stroke-width:0.264583;stroke-dasharray:none;stroke-opacity:1"
       d="M 4.2993623,23.258141 H 10.64936"
       id="path12" />
    <path
       style="fill:none;fill-opacity:1;stroke:#000000;stroke-width:0.264583;stroke-dasharray:none;stroke-opacity:1"
       d="m 20.17436,8.4414751 h 7.408331"
       id="path13" />
    <path
       style="fill:none;fill-opacity:1;stroke:#000000;stroke-width:0.264583;stroke-dasharray:none;stroke-opacity:1"
       d="m 20.17436,21.141475 h 7.408331"
       id="path14" />
    <use
       xlink:href="#Nor_Gate"
       style="fill:#ffffff;fill-opacity:1;stroke:#000000;stroke-width:1.25748;stroke-dasharray:none"
       id="use1-9"
       transform="matrix(0.2104071,0,0,0.2104071,3.2788153,-2.0788798)" />
    <use
       xlink:href="#Nor_Gate"
       style="fill:#ffffff;fill-opacity:1;stroke:#000000;stroke-width:1.25748;stroke-dasharray:none"
       id="use1-9-1"
       transform="matrix(0.2104071,0,0,0.2104071,3.2788153,10.62112)" />
    <text
       xml:space="preserve"
       style="font-size:2.82222px;fill:#000000;fill-opacity:1;stroke:#000000;stroke-width:0.132291;stroke-dasharray:none;stroke-opacity:0.993528"
       x="35.835762"
       y="7.4382615"
       id="text19-4-8-3-2"><tspan
         sodipodi:role="line"
         id="tspan19-4-9-8-9"
         style="font-size:2.82222px;fill:#000000;fill-opacity:1;stroke:none;stroke-width:0.132291;stroke-dasharray:none"
         x="35.835762"
         y="7.4382615">$S'$</tspan></text>
    <text
       xml:space="preserve"
       style="font-size:2.82222px;fill:#000000;fill-opacity:1;stroke:#000000;stroke-width:0.132291;stroke-dasharray:none;stroke-opacity:0.993528"
       x="35.835762"
       y="24.371595"
       id="text19-4-8-3-65-4"><tspan
         sodipodi:role="line"
         id="tspan19-4-9-8-1-4"
         style="font-size:2.82222px;fill:#000000;fill-opacity:1;stroke:none;stroke-width:0.132291;stroke-dasharray:none"
         x="35.835762"
         y="24.371595">$R'$</tspan></text>
    <text
       xml:space="preserve"
       style="font-size:2.82222px;fill:#000000;fill-opacity:1;stroke:#000000;stroke-width:0.132291;stroke-dasharray:none;stroke-opacity:0.993528"
       x="61.23576"
       y="9.5549288"
       id="text19-4-8-3-4-8"><tspan
         sodipodi:role="line"
         id="tspan19-4-9-8-5-5"
         style="font-size:2.82222px;fill:#000000;fill-opacity:1;stroke:none;stroke-width:0.132291;stroke-dasharray:none"
         x="61.23576"
         y="9.5549288">$Q$</tspan></text>
    <path
       style="fill:#000000;fill-opacity:1;stroke:#000000;stroke-width:0.264583;stroke-dasharray:none;stroke-opacity:1"
       d="m 38.166024,6.3248085 h 7.408331"
       id="path8-8" />
    <path
       style="fill:none;fill-opacity:1;stroke:#000000;stroke-width:0.264583;stroke-dasharray:none;stroke-opacity:1"
       d="M 44.516022,10.558142 H 40.28269 v 2.116666 l 16.933331,6.35 0.006,2.116667"
       id="path10-2"
       sodipodi:nodetypes="ccccc" />
    <path
       style="fill:none;fill-opacity:1;stroke:#000000;stroke-width:0.264583;stroke-dasharray:none;stroke-opacity:1"
       d="M 44.516022,19.024808 H 40.28269 v -2.116666 l 16.933331,-6.35 V 8.441475"
       id="path11-6"
       sodipodi:nodetypes="ccccc" />
    <path
       style="fill:none;fill-opacity:1;stroke:#000000;stroke-width:0.264583;stroke-dasharray:none;stroke-opacity:1"
       d="m 38.166024,23.258141 h 6.349998"
       id="path12-8" />
    <path
       style="fill:none;fill-opacity:1;stroke:#000000;stroke-width:0.264583;stroke-dasharray:none;stroke-opacity:1"
       d="m 54.041022,8.441475 h 7.408331"
       id="path13-3" />
    <path
       style="fill:none;fill-opacity:1;stroke:#000000;stroke-width:0.264583;stroke-dasharray:none;stroke-opacity:1"
       d="m 54.041022,21.141475 h 7.408331"
       id="path14-3" />
    <g
       id="use1-96"
       style="fill:#ffffff;fill-opacity:1;stroke:#000000;stroke-width:0.331861;stroke-dasharray:none"
       transform="matrix(0.79727208,0,0,0.79727208,37.081356,-2.0950139)">
      <title
         id="title5">Nand Gate</title>
      <path
         d="M 6.6145833,18.520833 V 15.875 13.229167 10.583333 7.9375 h 7.9374997 c 2.922507,0 5.291667,2.36916 5.291667,5.291667 0,2.922506 -2.36916,5.291666 -5.291667,5.291666 z"
         id="path5"
         style="fill:#ffffff;fill-opacity:1;stroke-width:0.331861;stroke-dasharray:none" />
      <path
         d="m 21.166667,13.229167 c 0,0.365313 -0.296145,0.661458 -0.661459,0.661458 -0.365313,0 -0.661458,-0.296145 -0.661458,-0.661458 0,-0.365314 0.296145,-0.661459 0.661458,-0.661459 0.365314,0 0.661459,0.296145 0.661459,0.661459 z"
         id="path6"
         style="fill:#ffffff;fill-opacity:1;stroke-width:0.331861;stroke-dasharray:none" />
    </g>
    <g
       id="use1-96-7"
       style="fill:#ffffff;fill-opacity:1;stroke:#000000;stroke-width:0.331861;stroke-dasharray:none"
       transform="matrix(0.79727208,0,0,0.79727208,37.059704,10.604986)">
      <title
         id="title5-6">Nand Gate</title>
      <path
         d="M 6.6145833,18.520833 V 15.875 13.229167 10.583333 7.9375 h 7.9374997 c 2.922507,0 5.291667,2.36916 5.291667,5.291667 0,2.922506 -2.36916,5.291666 -5.291667,5.291666 z"
         id="path5-0"
         style="fill:#ffffff;fill-opacity:1;stroke-width:0.331861;stroke-dasharray:none" />
      <path
         d="m 21.166667,13.229167 c 0,0.365313 -0.296145,0.661458 -0.661459,0.661458 -0.365313,0 -0.661458,-0.296145 -0.661458,-0.661458 0,-0.365314 0.296145,-0.661459 0.661458,-0.661459 0.365314,0 0.661459,0.296145 0.661459,0.661459 z"
         id="path6-5"
         style="fill:#ffffff;fill-opacity:1;stroke-width:0.331861;stroke-dasharray:none" />
    </g>
  </g>
</svg>
